HIERARCHY
ROOT Hips
{
	OFFSET 0.00000 0.00000 0.00000
	CHANNELS 6 Xposition Yposition Zposition Zrotation Yrotation Xrotation 
	JOINT LHipJoint
	{
		OFFSET 0 0 0
		CHANNELS 3 Zrotation Yrotation Xrotation
		JOINT LeftHip
		{
			OFFSET 1.53139 -1.83434 0.76626
			CHANNELS 3 Zrotation Yrotation Xrotation
			JOINT LeftKnee
			{
				OFFSET 2.56112 -7.03663 0.00000
				CHANNELS 3 Zrotation Yrotation Xrotation
				JOINT LeftAnkle
				{
					OFFSET 2.59983 -7.14299 0.00000
					CHANNELS 3 Zrotation Yrotation Xrotation
					JOINT LeftToe
					{
						OFFSET 0.13742 -0.37757 2.00054
						CHANNELS 3 Zrotation Yrotation Xrotation
						End Site
						{
							OFFSET 0.00000 -0.00000 1.02897
						}
					}
				}
			}
		}
	}
	JOINT RHipJoint
	{
		OFFSET 0 0 0
		CHANNELS 3 Zrotation Yrotation Xrotation
		JOINT RightHip
		{
			OFFSET -1.40122 -1.83435 0.76627
			CHANNELS 3 Zrotation Yrotation Xrotation
			JOINT RightKnee
			{
				OFFSET -2.54052 -6.98003 0.00000
				CHANNELS 3 Zrotation Yrotation Xrotation
				JOINT RightAnkle
				{
					OFFSET -2.63179 -7.23079 0.00000
					CHANNELS 3 Zrotation Yrotation Xrotation
					JOINT RightToe
					{
						OFFSET -0.24131 -0.66299 2.03908
						CHANNELS 3 Zrotation Yrotation Xrotation
						End Site
						{
							OFFSET -0.00000 -0.00000 1.07391
						}
					}
				}
			}
		}
	}
	JOINT lowerback
	{
		OFFSET 0 0 0
		CHANNELS 3 Zrotation Yrotation Xrotation
		JOINT Chest
		{
			OFFSET 0.01174 2.10302 -0.29778
			CHANNELS 3 Zrotation Yrotation Xrotation
			JOINT Chest2
			{
				OFFSET 0.00772 2.13227 -0.01247
				CHANNELS 3 Zrotation Yrotation Xrotation
				JOINT lowerneck
				{
					OFFSET 0 0 0
					CHANNELS 3 Zrotation Yrotation Xrotation
					JOINT Neck
					{
						OFFSET -0.09219 1.60848 0.31481
						CHANNELS 3 Zrotation Yrotation Xrotation
						JOINT Head
						{
							OFFSET 0.13974 1.65456 -0.31134
							CHANNELS 3 Zrotation Yrotation Xrotation
							End Site
							{
								OFFSET 0.04742 1.69515 -0.14578
							}
						}
					}
				}
				JOINT LeftCollar
				{
					OFFSET 0 0 0
					CHANNELS 3 Zrotation Yrotation Xrotation
					JOINT LeftShoulder
					{
						OFFSET 3.24909 1.02882 -0.23993
CHANNELS 3 Zrotation Xrotation Yrotation
						JOINT LeftElbow
						{
OFFSET 0 -5.329550 -0.000000
CHANNELS 3 Zrotation Xrotation Yrotation
							JOINT LeftWrist
							{
OFFSET 0 -3.692320 -0.000000
CHANNELS 3 Zrotation Xrotation Yrotation
								JOINT lhand
								{
									OFFSET 0 0 0
CHANNELS 3 Zrotation Xrotation Yrotation
									JOINT LFingers
									{
OFFSET 0 -0.536600 -0.000000
CHANNELS 3 Zrotation Xrotation Yrotation
										End Site
										{
OFFSET 0 -0.432620 -0.000000
										}
									}
								}
								JOINT LThumb
								{
OFFSET 0 0.000000 0.000000
CHANNELS 3 Zrotation Xrotation Yrotation
									End Site
									{
OFFSET 0 -0.439220 0.439220
									}
								}
							}
						}
					}
				}
				JOINT RightCollar
				{
					OFFSET 0 0 0
					CHANNELS 3 Zrotation Yrotation Xrotation
					JOINT RightShoulder
					{
						OFFSET -3.21387 0.93002 -0.34594
CHANNELS 3 Zrotation Xrotation Yrotation
						JOINT RightElbow
						{
OFFSET 0 -5.234310 0.000000
CHANNELS 3 Zrotation Xrotation Yrotation
							JOINT RightWrist
							{
OFFSET 0 -3.553010 -0.000000
CHANNELS 3 Zrotation Xrotation Yrotation
								JOINT rhand
								{
									OFFSET 0 0 0
CHANNELS 3 Zrotation Xrotation Yrotation
									JOINT RFingers
									{
OFFSET 0 -0.772520 -0.000000
CHANNELS 3 Zrotation Xrotation Yrotation
										End Site
										{
OFFSET 0 -0.622830 -0.000000
										}
									}
								}
								JOINT RThumb
								{
OFFSET 0 0.000000 0.000000
CHANNELS 3 Zrotation Xrotation Yrotation
									End Site
									{
OFFSET 0 -0.632340 0.632340
									}
								}
							}
						}
					}
				}
			}
		}
	}
}
MOTION
Frames: 11
Frame Time: 0.008333333333333333
6.292422 17.865616 8.396561 178.951506 -13.439358 -182.571751 0.000000 0.000000 0.000000 -9.274997 -7.923660 -6.064762 3.167423 10.961356 32.149527 0.702308 -2.746075 -15.136246 0.158603 -2.563410 -7.065677 0.000000 0.000000 0.000000 18.854997 -3.877296 -1.649182 -2.238651 -9.346381 26.885176 -0.918997 12.233633 -17.940977 -0.006018 0.501982 -1.379469 1.995549 1.638016 12.161535 0.585991 2.430036 0.130459 -0.932065 1.103454 -6.631501 -12.664166 -2.731643 -19.703620 7.228103 -4.430433 35.148032 4.307348 -3.322550 16.358379 0.000000 0.000000 0.000000 2.063114 3.706712 -13.443466 15.490565 -24.825062 3.429284 21.702836 17.229881 -20.548372 0.000000 0.000000 0.000000 -7.125000 0.000000 0.000000 -6.970262 51.819640 1.175218 0.000000 0.000000 0.000000 -3.077935 2.401064 6.195978 -17.819274 -27.925149 -4.464301 -17.254263 3.470307 -7.534198 0.000000 0.000000 0.000000 7.125000 0.000000 0.000000 6.962345 22.114777 3.856971
6.226274 17.876485 8.406001 178.873073 -13.136330 -182.592935 0.000000 0.000000 0.000000 -8.704689 -8.163923 -5.804660 3.083560 10.829069 31.705521 0.641308 -2.802246 -14.430969 0.088177 -1.912096 -5.262932 0.000000 0.000000 0.000000 18.522201 -3.808075 -1.317695 -2.162908 -9.197390 26.414857 -0.903575 12.322837 -17.838405 -0.007420 0.549738 -1.510559 1.989375 1.587936 12.250070 0.536696 2.361489 0.125341 -0.971602 1.068429 -6.686707 -12.603891 -2.681544 -19.700829 7.129759 -4.326154 35.078054 4.270389 -3.280289 16.302196 0.000000 0.000000 0.000000 2.113866 3.504683 -12.868603 15.224602 -24.458109 3.318405 21.673494 17.431013 -20.553198 0.000000 0.000000 0.000000 -7.125000 0.000000 0.000000 -7.001192 51.819449 1.180533 0.000000 0.000000 0.000000 -3.152128 2.322535 6.962654 -17.982614 -28.134860 -4.541052 -17.607181 3.419368 -7.353383 0.000000 0.000000 0.000000 7.125000 0.000000 0.000000 6.709160 22.286460 3.688182
6.161305 17.884797 8.417407 178.885586 -12.847799 -182.555689 0.000000 0.000000 0.000000 -8.010020 -8.340201 -5.675719 2.998624 10.692710 31.250499 0.564510 -2.900355 -13.493443 0.057485 -1.543462 -4.245591 0.000000 0.000000 0.000000 18.284388 -3.772072 -1.101129 -2.088544 -9.047951 25.945670 -0.877958 12.387863 -17.645555 -0.018224 0.862779 -2.371299 2.070970 1.567137 12.253807 0.489811 2.342846 0.117131 -1.063897 1.055901 -6.692820 -12.514153 -2.680295 -19.603089 7.033331 -4.298003 34.873345 4.210821 -3.255606 16.166317 0.000000 0.000000 0.000000 2.252416 3.610753 -12.928578 15.313247 -24.580543 3.355157 21.604187 17.288748 -20.710643 0.000000 0.000000 0.000000 -7.125000 0.000000 0.000000 -7.120459 51.971282 1.227293 0.000000 0.000000 0.000000 -3.136469 2.261696 7.468071 -18.217268 -28.434218 -4.652330 -17.643870 3.303982 -7.657624 0.000000 0.000000 0.000000 7.125000 0.000000 0.000000 6.676593 21.968254 3.718651
6.095880 17.894551 8.426209 178.806447 -12.517834 -182.518738 0.000000 0.000000 0.000000 -7.424305 -8.476721 -5.476792 2.907142 10.542994 30.753880 0.477520 -2.995482 -12.363255 0.035997 -1.218930 -3.351508 0.000000 0.000000 0.000000 17.982269 -3.583246 -0.816474 -2.019190 -8.905666 25.500895 -0.869418 12.315282 -17.554760 -0.031848 1.151984 -3.167080 2.021606 1.569950 12.265222 0.434438 2.337287 0.105566 -1.094121 1.054024 -6.711246 -12.220963 -2.655303 -19.410149 6.725385 -4.231851 34.589450 4.026385 -3.213068 15.952323 0.000000 0.000000 0.000000 2.379902 3.859352 -13.040226 15.524568 -24.871357 3.443749 21.691792 17.081828 -20.731056 0.000000 0.000000 0.000000 -7.125000 0.000000 0.000000 -7.039284 52.008020 1.219581 0.000000 0.000000 0.000000 -3.130177 2.282372 7.899618 -18.534089 -28.835285 -4.804251 -16.993351 3.369877 -7.376217 0.000000 0.000000 0.000000 7.125000 0.000000 0.000000 7.157095 22.289430 3.935774
6.027001 17.903961 8.433420 178.655546 -12.159809 -182.512918 0.000000 0.000000 0.000000 -6.953932 -8.653610 -5.169223 2.811110 10.382462 30.224628 0.387262 -3.134760 -11.082130 0.022275 -0.961835 -2.643771 0.000000 0.000000 0.000000 17.591664 -3.329919 -0.459923 -1.951062 -8.763141 25.057244 -0.854785 12.298063 -17.428951 -0.026371 1.042728 -2.866505 1.868047 1.554687 12.286619 0.404690 2.292666 0.125409 -1.031551 1.036651 -6.708349 -12.088542 -2.608623 -19.339505 6.543628 -4.111896 34.386968 3.940762 -3.156000 15.811133 0.000000 0.000000 0.000000 2.373556 4.155208 -12.998913 15.840379 -25.303533 3.577559 21.853875 16.946134 -20.840080 0.000000 0.000000 0.000000 -7.125000 0.000000 0.000000 -6.911695 52.150432 1.221304 0.000000 0.000000 0.000000 -3.216000 2.273674 8.406635 -18.865004 -29.250340 -4.964872 -16.160102 3.319577 -6.938710 0.000000 0.000000 0.000000 7.125000 0.000000 0.000000 7.776806 22.777197 4.198463
5.953763 17.914302 8.441079 178.563042 -11.800901 -182.508678 0.000000 0.000000 0.000000 -6.456436 -8.904931 -4.836093 2.706920 10.204264 29.641290 0.288538 -3.284277 -9.522495 0.014304 -0.748637 -2.057425 0.000000 0.000000 0.000000 17.213875 -3.202375 -0.186561 -1.885564 -8.623323 24.624066 -0.825227 12.459234 -17.227641 -0.016679 0.831530 -2.285407 1.805369 1.546152 12.302134 0.396157 2.270657 0.147710 -1.001438 1.027554 -6.695990 -12.050345 -2.590023 -19.388668 6.412031 -4.025561 34.325556 3.891129 -3.126710 15.777382 0.000000 0.000000 0.000000 2.325180 4.249214 -12.876679 15.994700 -25.513443 3.643705 22.037093 17.070310 -21.144789 0.000000 0.000000 0.000000 -7.125000 0.000000 0.000000 -6.825801 52.501070 1.264911 0.000000 0.000000 0.000000 -3.331069 2.232226 8.853252 -19.103037 -29.546343 -5.081605 -15.664430 3.013808 -7.576615 0.000000 0.000000 0.000000 7.125000 0.000000 0.000000 8.117685 22.140893 4.503863
5.878998 17.924925 8.448561 178.542452 -11.387067 -182.533346 0.000000 0.000000 0.000000 -5.896510 -9.173695 -4.432111 2.596452 10.010667 29.011761 0.186049 -3.444759 -7.638271 0.003330 -0.271297 -0.745502 0.000000 0.000000 0.000000 16.917532 -2.986009 0.107283 -1.825803 -8.493205 24.222538 -0.792521 12.601631 -16.994402 -0.015475 0.800680 -2.200551 1.857301 1.553607 12.370877 0.381259 2.286408 0.164129 -1.050900 1.032341 -6.714087 -12.036115 -2.620884 -19.522826 6.296569 -4.011890 34.340093 3.840628 -3.132205 15.812162 0.000000 0.000000 0.000000 2.378697 4.254148 -12.859971 16.022537 -25.551217 3.655678 22.101220 17.091515 -21.392864 0.000000 0.000000 0.000000 -7.125000 0.000000 0.000000 -6.842125 52.771366 1.313416 0.000000 0.000000 0.000000 -3.450876 2.187091 9.339896 -19.235295 -29.709928 -5.146961 -15.772146 2.823820 -7.898158 0.000000 0.000000 0.000000 7.125000 0.000000 0.000000 8.029184 21.806082 4.515972
5.803601 17.933090 8.454519 178.462444 -11.017292 -182.584564 0.000000 0.000000 0.000000 -5.426072 -9.477038 -3.943987 2.482262 9.804854 28.347625 0.094699 -3.468388 -5.550443 0.000821 0.146847 0.403409 0.000000 0.000000 0.000000 16.568088 -2.738973 0.425325 -1.777036 -8.385216 23.890397 -0.773464 12.671466 -16.854562 -0.022727 0.967938 -2.660595 1.815047 1.553795 12.480011 0.358436 2.279359 0.179437 -1.053096 1.028544 -6.760118 -12.052592 -2.642859 -19.665825 6.246681 -4.000530 34.372503 3.824344 -3.135461 15.860317 0.000000 0.000000 0.000000 2.446197 4.308251 -12.866031 16.074581 -25.621636 3.678159 22.083590 17.004949 -21.409676 0.000000 0.000000 0.000000 -7.125000 0.000000 0.000000 -6.865511 52.785673 1.320323 0.000000 0.000000 0.000000 -3.554628 2.112111 9.782982 -19.330908 -29.827753 -5.194441 -15.951834 2.818257 -7.704776 0.000000 0.000000 0.000000 7.125000 0.000000 0.000000 7.904792 21.996748 4.409697
5.726606 17.939501 8.460778 178.266482 -10.739971 -182.580185 0.000000 0.000000 0.000000 -5.114086 -9.906198 -3.483649 2.366473 9.590237 27.660340 0.029122 -3.391732 -3.515576 0.002568 0.323610 0.889139 0.000000 0.000000 0.000000 16.088263 -2.529347 0.654254 -1.741339 -8.305046 23.644545 -0.765671 12.678462 -16.790794 -0.039085 1.263098 -3.473183 1.643300 1.547213 12.567932 0.300695 2.244872 0.156681 -1.014465 1.015589 -6.839073 -12.067221 -2.629395 -19.681851 6.268127 -3.992282 34.394666 3.837664 -3.135356 15.874512 0.000000 0.000000 0.000000 2.520552 4.420211 -12.891782 16.150085 -25.723743 3.710919 21.946629 16.921043 -21.479360 0.000000 0.000000 0.000000 -7.125000 0.000000 0.000000 -7.027809 52.833015 1.360367 0.000000 0.000000 0.000000 -3.595458 2.040856 9.973500 -19.389463 -29.899772 -5.223581 -15.855285 2.984001 -7.461633 0.000000 0.000000 0.000000 7.125000 0.000000 0.000000 7.982604 22.250835 4.407007
5.648150 17.940258 8.468868 177.979431 -10.403926 -182.542020 0.000000 0.000000 0.000000 -4.928605 -10.329407 -3.029440 2.252993 9.373626 26.971724 -0.015197 -3.521929 -1.521999 0.022127 0.862179 2.370297 0.000000 0.000000 0.000000 15.487948 -2.344285 0.805126 -1.714910 -8.245095 23.461186 -0.756162 12.712265 -16.720336 -0.067514 1.664840 -4.580536 1.390748 1.562245 12.577740 0.193509 2.221307 0.164375 -0.981223 1.010885 -6.842244 -12.036589 -2.618139 -19.641783 6.269669 -3.998803 34.363816 3.830203 -3.135611 15.849391 0.000000 0.000000 0.000000 2.620289 4.463874 -12.855710 16.215059 -25.811378 3.739117 21.937313 16.899082 -21.460252 0.000000 0.000000 0.000000 -7.125000 0.000000 0.000000 -7.030815 52.811427 1.357145 0.000000 0.000000 0.000000 -3.586515 1.951218 10.138619 -19.434758 -29.955294 -5.246172 -15.832609 3.128461 -7.011587 0.000000 0.000000 0.000000 7.125000 0.000000 0.000000 8.014160 22.714579 4.339367
5.566373 17.938153 8.475897 177.801040 -10.052761 -182.510748 0.000000 0.000000 0.000000 -4.637128 -10.673762 -2.599479 2.142665 9.156434 26.286435 -0.042906 -3.846746 0.625150 0.053554 1.480336 4.071729 0.000000 0.000000 0.000000 14.997785 -2.132135 0.927254 -1.694493 -8.198342 23.318276 -0.745705 12.731510 -16.636974 -0.094720 1.981483 -5.454614 1.244527 1.563003 12.528543 0.132991 2.195768 0.184297 -0.956193 1.002833 -6.796984 -12.074723 -2.638928 -19.578770 6.280624 -4.024356 34.276435 3.834063 -3.147393 15.796587 0.000000 0.000000 0.000000 2.668569 4.516391 -12.832344 16.289673 -25.911754 3.771650 22.423359 16.958511 -21.140311 0.000000 0.000000 0.000000 -7.125000 0.000000 0.000000 -6.434790 52.566310 1.203311 0.000000 0.000000 0.000000 -3.649910 1.924809 10.471546 -19.519787 -30.059365 -5.288675 -15.876941 3.063010 -6.648530 0.000000 0.000000 0.000000 7.125000 0.000000 0.000000 7.994761 23.086119 4.259895
